<!--?xml version="1.0" standalone="no"?-->
              <svg id="sw-js-blob-svg" viewBox="0 0 100 100" xmlns="http://www.w3.org/2000/svg" version="1.1">
                    <defs> 
                        <linearGradient id="sw-gradient" x1="0" x2="1" y1="1" y2="0">
                            <stop id="stop1" stop-color="rgba(248, 117, 55, 1)" offset="0%"></stop>
                            <stop id="stop2" stop-color="rgba(251, 168, 31, 1)" offset="100%"></stop>
                        </linearGradient>
                    </defs>
                <path fill="url(#sw-gradient)" d="M23,-40C29.7,-36.1,34.8,-29.6,37.6,-22.5C40.4,-15.4,40.8,-7.7,40.5,-0.2C40.2,7.4,39.2,14.7,36.2,21.3C33.1,27.8,27.8,33.5,21.5,37.3C15.1,41.1,7.5,42.9,-0.1,43C-7.7,43.2,-15.4,41.5,-21.7,37.8C-28.1,34,-33.1,28,-35.5,21.3C-38,14.7,-37.8,7.3,-37.5,0.2C-37.2,-7,-36.8,-14,-34.4,-20.7C-32,-27.5,-27.7,-34,-21.7,-38.4C-15.6,-42.7,-7.8,-44.8,0.2,-45.2C8.2,-45.5,16.4,-44,23,-40Z" width="100%" height="100%" transform="translate(50 50)" stroke-width="0" style="transition: all 0.3s ease 0s;"></path>
              </svg>