<!--?xml version="1.0" standalone="no"?-->
              <svg id="sw-js-blob-svg" viewBox="0 0 100 100" xmlns="http://www.w3.org/2000/svg" version="1.1">
                    <defs> 
                        <linearGradient id="sw-gradient" x1="0" x2="1" y1="1" y2="0">
                            <stop id="stop1" stop-color="rgba(248, 117, 55, 1)" offset="0%"></stop>
                            <stop id="stop2" stop-color="rgba(251, 168, 31, 1)" offset="100%"></stop>
                        </linearGradient>
                    </defs>
                <path fill="url(#sw-gradient)" d="M26,-28.8C34.2,-24.1,41.6,-16.4,41.4,-8.6C41.3,-0.8,33.6,7.1,27.8,15C22,23,18.1,31.1,12.1,33.3C6,35.6,-2.2,32.1,-10.2,28.8C-18.3,25.6,-26.3,22.7,-32.5,16.5C-38.8,10.3,-43.4,0.9,-41.5,-6.9C-39.6,-14.7,-31.3,-21,-23.3,-25.7C-15.3,-30.5,-7.6,-33.6,0.6,-34.4C8.9,-35.2,17.8,-33.5,26,-28.8Z" width="100%" height="100%" transform="translate(50 50)" stroke-width="0" style="transition: all 0.3s ease 0s;" stroke="url(#sw-gradient)"></path>
              </svg>